<svg width="884" height="357" viewBox="0 0 884 357" fill="none" xmlns="http://www.w3.org/2000/svg">
<path d="M854.029 36.7819L854.029 131.615C854.029 150.948 838.356 166.622 819.024 166.622L72.5451 166.622C53.2135 166.622 37.5403 182.297 37.5403 201.63L37.5403 356.782" stroke="#5D6569" stroke-dasharray="10 10"/>
<path d="M470 165.486C468.667 166.256 468.667 168.18 470 168.95L488 179.342C489.333 180.112 491 179.15 491 177.61L491 156.825C491 155.286 489.333 154.324 488 155.093L470 165.486Z" fill="#B8C4DF"/>
<path d="M427.5 163.62C425.5 164.774 425.5 167.661 427.5 168.816L448.5 180.94C450.5 182.095 453 180.652 453 178.342L453 154.093C453 151.784 450.5 150.341 448.5 151.495L427.5 163.62Z" fill="#3B5184"/>
<path d="M391 165.486C389.667 166.256 389.667 168.18 391 168.95L406 177.61C407.333 178.38 409 177.418 409 175.878L409 158.558C409 157.018 407.333 156.056 406 156.825L391 165.486Z" fill="#B8C4DF"/>
</svg>
