<svg width="24" height="25" viewBox="0 0 24 25" fill="none" xmlns="http://www.w3.org/2000/svg">
<g clip-path="url(#clip0_361_1513)">
<path d="M19 1.93726H5C3.67441 1.93884 2.40356 2.46614 1.46622 3.40348C0.528882 4.34081 0.00158786 5.61166 0 6.93726L0 18.9373C0.00158786 20.2629 0.528882 21.5337 1.46622 22.471C2.40356 23.4084 3.67441 23.9357 5 23.9373H19C20.3256 23.9357 21.5964 23.4084 22.5338 22.471C23.4711 21.5337 23.9984 20.2629 24 18.9373V6.93726C23.9984 5.61166 23.4711 4.34081 22.5338 3.40348C21.5964 2.46614 20.3256 1.93884 19 1.93726ZM5 3.93726H19C19.5988 3.93843 20.1835 4.11877 20.679 4.45506C21.1744 4.79135 21.5579 5.2682 21.78 5.82426L14.122 13.4833C13.5584 14.0446 12.7954 14.3597 12 14.3597C11.2046 14.3597 10.4416 14.0446 9.878 13.4833L2.22 5.82426C2.44215 5.2682 2.82561 4.79135 3.32105 4.45506C3.81648 4.11877 4.40121 3.93843 5 3.93726ZM19 21.9373H5C4.20435 21.9373 3.44129 21.6212 2.87868 21.0586C2.31607 20.496 2 19.7329 2 18.9373V8.43726L8.464 14.8973C9.40263 15.8335 10.6743 16.3593 12 16.3593C13.3257 16.3593 14.5974 15.8335 15.536 14.8973L22 8.43726V18.9373C22 19.7329 21.6839 20.496 21.1213 21.0586C20.5587 21.6212 19.7956 21.9373 19 21.9373Z" fill="#666666"/>
</g>
<defs>
<clipPath id="clip0_361_1513">
<rect width="24" height="24" fill="white" transform="translate(0 0.9375)"/>
</clipPath>
</defs>
</svg>
