<svg width="32" height="32" viewBox="0 0 32 32" fill="none" xmlns="http://www.w3.org/2000/svg">
<rect width="32" height="32" rx="5" fill="#3B5184"/>
<path fill-rule="evenodd" clip-rule="evenodd" d="M6.36969 10.1987C6.78625 9.87811 7.3857 9.95348 7.7086 10.367L12.4271 16.4097C12.7976 16.8716 13.4874 16.961 13.9719 16.5917L17.7152 13.6676C19.0306 12.6586 20.9179 12.8954 21.936 14.2032L21.9369 14.2044L26.8017 20.4745C27.1233 20.889 27.0455 21.4839 26.628 21.8031C26.2104 22.1224 25.6112 22.0452 25.2896 21.6307L20.4257 15.3618C20.0544 14.8854 19.3682 14.7966 18.8851 15.1647L15.1417 18.0889C13.8285 19.0962 11.9468 18.8616 10.9275 17.5819L10.9218 17.5747L6.20012 11.5278C5.87722 11.1143 5.95314 10.5192 6.36969 10.1987Z" fill="white"/>
</svg>
