<svg width="24" height="25" viewBox="0 0 24 25" fill="none" xmlns="http://www.w3.org/2000/svg">
<g clip-path="url(#clip0_361_1508)">
<path d="M12 6.9375C11.2089 6.9375 10.4355 7.1721 9.77772 7.61162C9.11993 8.05115 8.60723 8.67586 8.30448 9.40677C8.00173 10.1377 7.92252 10.9419 8.07686 11.7179C8.2312 12.4938 8.61216 13.2065 9.17157 13.7659C9.73098 14.3253 10.4437 14.7063 11.2196 14.8606C11.9956 15.015 12.7998 14.9358 13.5307 14.633C14.2616 14.3303 14.8864 13.8176 15.3259 13.1598C15.7654 12.502 16 11.7286 16 10.9375C16 9.87663 15.5786 8.85922 14.8284 8.10907C14.0783 7.35893 13.0609 6.9375 12 6.9375ZM12 12.9375C11.6044 12.9375 11.2178 12.8202 10.8889 12.6004C10.56 12.3807 10.3036 12.0683 10.1522 11.7029C10.0009 11.3374 9.96126 10.9353 10.0384 10.5473C10.1156 10.1594 10.3061 9.80299 10.5858 9.52329C10.8655 9.24358 11.2219 9.0531 11.6098 8.97593C11.9978 8.89876 12.3999 8.93837 12.7654 9.08974C13.1308 9.24112 13.4432 9.49746 13.6629 9.82636C13.8827 10.1553 14 10.5419 14 10.9375C14 11.4679 13.7893 11.9766 13.4142 12.3517C13.0391 12.7268 12.5304 12.9375 12 12.9375Z" fill="#666666"/>
<path d="M11.9998 24.9378C11.1578 24.9421 10.3269 24.7446 9.57689 24.3618C8.82684 23.9791 8.17942 23.4222 7.68882 22.7378C3.87782 17.4808 1.94482 13.5288 1.94482 10.9908C1.94482 8.32404 3.00419 5.76651 4.88987 3.88083C6.77554 1.99515 9.33307 0.935791 11.9998 0.935791C14.6666 0.935791 17.2241 1.99515 19.1098 3.88083C20.9955 5.76651 22.0548 8.32404 22.0548 10.9908C22.0548 13.5288 20.1218 17.4808 16.3108 22.7378C15.8202 23.4222 15.1728 23.9791 14.4228 24.3618C13.6727 24.7446 12.8419 24.9421 11.9998 24.9378V24.9378ZM11.9998 3.11879C9.91224 3.12117 7.91084 3.95152 6.4347 5.42766C4.95855 6.90381 4.12821 8.90521 4.12582 10.9928C4.12582 13.0028 6.01882 16.7198 9.45482 21.4588C9.74652 21.8606 10.1292 22.1876 10.5715 22.4131C11.0139 22.6385 11.5033 22.7561 11.9998 22.7561C12.4963 22.7561 12.9858 22.6385 13.4281 22.4131C13.8705 22.1876 14.2531 21.8606 14.5448 21.4588C17.9808 16.7198 19.8738 13.0028 19.8738 10.9928C19.8714 8.90521 19.0411 6.90381 17.565 5.42766C16.0888 3.95152 14.0874 3.12117 11.9998 3.11879V3.11879Z" fill="#666666"/>
</g>
<defs>
<clipPath id="clip0_361_1508">
<rect width="24" height="24" fill="white" transform="translate(0 0.9375)"/>
</clipPath>
</defs>
</svg>
