<svg width="24" height="25" viewBox="0 0 24 25" fill="none" xmlns="http://www.w3.org/2000/svg">
<g clip-path="url(#clip0_361_1509)">
<path d="M13 1.93763C13 1.67242 13.1053 1.41806 13.2929 1.23053C13.4804 1.04299 13.7348 0.937632 14 0.937632C16.6512 0.940544 19.1931 1.99505 21.0678 3.86978C22.9425 5.74451 23.997 8.28636 24 10.9376C24 11.2029 23.8946 11.4572 23.7071 11.6447C23.5195 11.8323 23.2652 11.9376 23 11.9376C22.7347 11.9376 22.4804 11.8323 22.2929 11.6447C22.1053 11.4572 22 11.2029 22 10.9376C21.9976 8.81663 21.154 6.78318 19.6542 5.28341C18.1544 3.78363 16.121 2.94001 14 2.93763C13.7348 2.93763 13.4804 2.83228 13.2929 2.64474C13.1053 2.4572 13 2.20285 13 1.93763V1.93763ZM14 6.93763C15.0608 6.93763 16.0782 7.35906 16.8284 8.10921C17.5785 8.85935 18 9.87677 18 10.9376C18 11.2029 18.1053 11.4572 18.2929 11.6447C18.4804 11.8323 18.7347 11.9376 19 11.9376C19.2652 11.9376 19.5195 11.8323 19.7071 11.6447C19.8946 11.4572 20 11.2029 20 10.9376C19.9984 9.34682 19.3657 7.82162 18.2408 6.69675C17.116 5.57187 15.5908 4.93922 14 4.93763C13.7348 4.93763 13.4804 5.04299 13.2929 5.23053C13.1053 5.41806 13 5.67242 13 5.93763C13 6.20285 13.1053 6.4572 13.2929 6.64474C13.4804 6.83228 13.7348 6.93763 14 6.93763V6.93763ZM23.093 17.6766C23.6725 18.2577 23.9979 19.0449 23.9979 19.8656C23.9979 20.6863 23.6725 21.4735 23.093 22.0546L22.183 23.1036C13.993 30.9446 -5.93701 11.0196 1.78298 2.80363L2.93298 1.80363C3.51475 1.24031 4.29491 0.928681 5.10468 0.936167C5.91446 0.943653 6.68872 1.26965 7.25998 1.84363C7.29098 1.87463 9.14397 4.28163 9.14397 4.28163C9.6938 4.85926 9.99988 5.62656 9.99857 6.42404C9.99727 7.22151 9.68869 7.98781 9.13697 8.56363L7.97898 10.0196C8.61982 11.5767 9.56204 12.9919 10.7515 14.1837C11.9409 15.3756 13.3542 16.3206 14.91 16.9646L16.375 15.7996C16.9509 15.2483 17.717 14.9401 18.5143 14.939C19.3115 14.9379 20.0785 15.244 20.656 15.7936C20.656 15.7936 23.062 17.6456 23.093 17.6766ZM21.717 19.1306C21.717 19.1306 19.324 17.2896 19.293 17.2586C19.0869 17.0544 18.8086 16.9398 18.5185 16.9398C18.2283 16.9398 17.95 17.0544 17.744 17.2586C17.717 17.2866 15.7 18.8936 15.7 18.8936C15.564 19.0018 15.4023 19.0727 15.2306 19.0994C15.0589 19.126 14.8833 19.1075 14.721 19.0456C12.7054 18.2952 10.8747 17.1204 9.35281 15.6007C7.83091 14.0811 6.65338 12.2521 5.89998 10.2376C5.83318 10.0731 5.8114 9.89372 5.83688 9.71797C5.86237 9.54222 5.93419 9.37643 6.04498 9.23763C6.04498 9.23763 7.65198 7.21963 7.67898 7.19363C7.88324 6.98762 7.99786 6.70925 7.99786 6.41913C7.99786 6.12902 7.88324 5.85065 7.67898 5.64463C7.64798 5.61463 5.80698 3.21963 5.80698 3.21963C5.59788 3.03214 5.32498 2.93173 5.04423 2.93898C4.76347 2.94623 4.49612 3.0606 4.29698 3.25863L3.14698 4.25863C-2.49501 11.0426 14.776 27.3556 20.721 21.7376L21.632 20.6876C21.8454 20.4899 21.9737 20.2169 21.9895 19.9263C22.0054 19.6358 21.9076 19.3504 21.717 19.1306V19.1306Z" fill="#666666"/>
</g>
<defs>
<clipPath id="clip0_361_1509">
<rect width="24" height="24" fill="white" transform="translate(0 0.9375)"/>
</clipPath>
</defs>
</svg>
