<svg width="32" height="32" viewBox="0 0 32 32" fill="none" xmlns="http://www.w3.org/2000/svg">
<circle cx="16" cy="16" r="16" fill="#3B5184"/>
<path d="M22.1175 13.6136H15.9398C15.4573 13.6136 15.0573 13.2024 15.0573 12.7064C15.0573 12.2105 15.4573 11.7993 15.9398 11.7993H22.1175C22.5999 11.7993 23 12.2105 23 12.7064C23 13.2024 22.6117 13.6136 22.1175 13.6136Z" fill="white"/>
<path d="M9.76211 14.5329C9.53854 14.5329 9.31496 14.4482 9.13846 14.2668L8.25593 13.3596C7.91469 13.0088 7.91469 12.4282 8.25593 12.0775C8.59718 11.7267 9.16199 11.7267 9.50324 12.0775L9.76211 12.3436L11.786 10.2631C12.1273 9.91231 12.6921 9.91231 13.0333 10.2631C13.3746 10.6139 13.3746 11.1945 13.0333 11.5452L10.3858 14.2668C10.221 14.4361 9.99745 14.5329 9.76211 14.5329Z" fill="white"/>
<path d="M22.1175 22.0807H15.9398C15.4573 22.0807 15.0573 21.6695 15.0573 21.1735C15.0573 20.6776 15.4573 20.2663 15.9398 20.2663H22.1175C22.5999 20.2663 23 20.6776 23 21.1735C23 21.6695 22.6117 22.0807 22.1175 22.0807Z" fill="white"/>
<path d="M9.76211 23C9.53854 23 9.31496 22.9153 9.13846 22.7339L8.25593 21.8267C7.91469 21.4759 7.91469 20.8953 8.25593 20.5445C8.59718 20.1938 9.16199 20.1938 9.50324 20.5445L9.76211 20.8107L11.786 18.7302C12.1273 18.3794 12.6921 18.3794 13.0333 18.7302C13.3746 19.081 13.3746 19.6615 13.0333 20.0123L10.3858 22.7339C10.221 22.9032 9.99745 23 9.76211 23Z" fill="white"/>
</svg>
